<?xml version="1.0" encoding="utf-8"?>
<!-- Generator: Adobe Illustrator 26.0.1, SVG Export Plug-In . SVG Version: 6.00 Build 0)  -->
<svg version="1.1" id="Layer_1" xmlns="http://www.w3.org/2000/svg" xmlns:xlink="http://www.w3.org/1999/xlink" x="0px" y="0px"
	 viewBox="0 0 512 512" style="enable-background:new 0 0 512 512;" xml:space="preserve">
<style type="text/css">
	.st0{fill:#FFFFFF;}
</style>
<path class="st0" d="M16.1,260.2c-22.6,12.9-20.5,47.3,3.6,57.3L160,376v103.3c0,18.1,14.6,32.7,32.7,32.7c9.7,0,18.9-4.3,25.1-11.8
	l62-74.3l123.9,51.6c18.9,7.9,40.8-4.5,43.9-24.7l64-416c1.9-12.1-3.4-24.3-13.5-31.2s-23.3-7.5-34-1.4L16.1,260.2L16.1,260.2z
	 M68.2,285.7L409.7,90.6L190.1,336l1.2,1L68.2,285.7z M403.3,425.4l-166.6-69.5l214.1-239.3L403.3,425.4z"/>
</svg>
